<?xml version="1.0" encoding="UTF-8" standalone="no"?>
<!DOCTYPE svg PUBLIC "-//W3C//DTD SVG 1.1//EN" "http://www.w3.org/Graphics/SVG/1.1/DTD/svg11.dtd">
<!-- Created with Vectornator (http://vectornator.io/) -->
<svg height="100%" stroke-miterlimit="10" style="fill-rule:nonzero;clip-rule:evenodd;stroke-linecap:round;stroke-linejoin:round;" version="1.1" viewBox="0 0 24 24" width="100%" xml:space="preserve" xmlns="http://www.w3.org/2000/svg" xmlns:xlink="http://www.w3.org/1999/xlink">
<defs/>
<clipPath id="ArtboardFrame">
<rect height="24" width="24" x="0" y="0"/>
</clipPath>
<g clip-path="url(#ArtboardFrame)" id="Untitled">
<path d="M12 18C10.942 18 9.885 17.746 8.835 17.238C8.835 17.238 8.835 17.238 8.834 17.238C8.327 16.992 8 16.467 8 15.9C8 13.75 9.794 12 12 12C14.206 12 16 13.75 16 15.9C16 16.466 15.673 16.992 15.167 17.238C14.116 17.746 13.058 18 12 18Z" fill="#ffffff" fill-rule="nonzero" opacity="1" stroke="none"/>
<path d="M8.466 9.034C8.215 7.821 8.493 6.408 9.508 6.056C9.864 5.933 10.253 5.974 10.602 6.172C11.16 6.489 11.602 7.205 11.784 8.089C12.035 9.301 11.758 10.714 10.743 11.066C9.962 11.337 8.835 10.811 8.466 9.034Z" fill="#ffffff" fill-rule="nonzero" opacity="1" stroke="none"/>
<path d="M13.336 11.065C12.321 10.712 12.044 9.3 12.295 8.088C12.478 7.205 12.92 6.488 13.477 6.171C13.827 5.973 14.215 5.932 14.571 6.055C15.586 6.407 15.863 7.82 15.613 9.033C15.244 10.812 14.118 11.337 13.336 11.065Z" fill="#ffffff" fill-rule="nonzero" opacity="1" stroke="none"/>
<path d="M5.126 11.811C4.556 10.87 4.609 9.623 5.518 9.123C6.336 8.673 7.456 9.112 8.067 10.121C8.752 11.252 8.439 12.389 7.676 12.808C6.793 13.295 5.679 12.723 5.126 11.811Z" fill="#ffffff" fill-rule="nonzero" opacity="1" stroke="none"/>
<path d="M16.324 12.808C15.422 12.312 15.359 11.069 15.933 10.12C16.545 9.111 17.663 8.671 18.483 9.123C19.385 9.619 19.448 10.862 18.874 11.81C18.316 12.732 17.203 13.291 16.324 12.808Z" fill="#ffffff" fill-rule="nonzero" opacity="1" stroke="none"/>
<path d="M20.72 2.22L19.924 3.016C17.761 1.089 14.974 0 12 0C5.383 0-4.76837e-07 5.383-4.76837e-07 12C-4.76837e-07 13.173 0.173 14.339 0.513 15.466C0.61 15.791 0.908 16 1.23 16C1.301 16 1.375 15.99 1.447 15.968C1.843 15.848 2.068 15.43 1.948 15.033C1.651 14.046 1.5 13.026 1.5 12C1.5 6.21 6.21 1.5 12 1.5C14.571 1.5 16.982 2.43 18.863 4.076L18.22 4.72C17.748 5.19 18.081 6 18.75 6L21.25 6C21.664 6 22 5.664 22 5.25L22 2.75C22 2.087 21.195 1.746 20.72 2.22Z" fill="#40c9a2" fill-rule="nonzero" opacity="1" stroke="none"/>
<path d="M23.487 8.534C23.367 8.138 22.952 7.911 22.552 8.032C22.156 8.152 21.931 8.57 22.051 8.967C22.349 9.954 22.5 10.974 22.5 12C22.5 17.79 17.79 22.5 12 22.5C9.429 22.5 7.018 21.57 5.137 19.924L5.78 19.28C6.252 18.81 5.919 18 5.25 18L2.75 18C2.336 18 2 18.336 2 18.75L2 21.25C2 21.919 2.811 22.249 3.28 21.78L4.076 20.984C6.239 22.911 9.026 24 12 24C18.617 24 24 18.617 24 12C24 10.827 23.827 9.661 23.487 8.534Z" fill="#40c9a2" fill-rule="nonzero" opacity="1" stroke="none"/>
</g>
</svg>
